<svg width="156" height="28" viewBox="0 0 156 28" fill="none" xmlns="http://www.w3.org/2000/svg">
<path d="M18.3812 14.046C20.9191 14.046 22.9765 16.0923 22.9765 18.6166C22.9765 21.141 20.9191 23.1873 18.3812 23.1873H0L4.82078e-07 14.046H18.3812Z" fill="#131415"/>
<path d="M6.12704 1.85754C8.66495 1.85754 10.7223 3.9039 10.7223 6.42821C10.7223 8.95249 8.66495 10.9989 6.12704 10.9989H0L4.82077e-07 1.85754L6.12704 1.85754Z" fill="#131415"/>
<path d="M46.6443 12.2148C47.8746 12.0007 49.6583 10.5934 49.6583 7.99319C49.6583 4.56693 47.29 2.30316 43.5685 2.30316H33.4189V22.7995H43.5993C48.182 22.7995 50.2429 20.4439 50.2429 17.1094C50.2429 14.2033 48.3358 12.5513 46.6443 12.3372V12.2148ZM37.6018 5.85177H43.1072C44.4605 5.85177 45.5985 6.80009 45.5985 8.2379C45.5985 9.82868 44.4912 10.8688 42.8304 10.8688H37.6018V5.85177ZM37.6018 19.2508V14.1726H43.2917C44.8602 14.1726 45.9675 15.1516 45.9675 16.7118C45.9675 18.2413 45.0139 19.2508 43.1379 19.2508H37.6018Z" fill="#131415"/>
<path d="M67.4175 7.5343H63.3578V14.295C63.3578 18.0271 61.8504 19.5567 59.544 19.5567C57.6677 19.5567 56.4374 18.1189 56.4374 15.9775V7.5343H52.3777V16.8341C52.3777 20.6274 54.8382 23.2583 58.529 23.2583C60.5586 23.2583 62.1583 22.6159 63.3578 21.4228V22.7994H67.4175V7.5343Z" fill="#131415"/>
<path d="M90.3987 7.07538C87.9382 7.07538 86.0618 8.02372 84.8008 9.58388C83.6935 7.96254 81.8176 7.07538 79.7568 7.07538C77.7579 7.07538 76.251 7.71782 75.1744 8.78852V7.53429H71.1143V22.7994H75.1744V15.4574C75.1744 12.2454 76.5277 10.777 78.6803 10.777C80.3722 10.777 81.6947 12.0312 81.6947 14.0809V22.7994H85.7544V15.4574C85.7544 12.2454 87.1691 10.777 89.3222 10.777C91.0136 10.777 92.3361 12.0312 92.3361 14.0809V22.7994H96.3655V13.2549C96.3655 9.52271 93.5971 7.07538 90.3987 7.07538Z" fill="#131415"/>
<path d="M108.829 7.07538C106.737 7.07538 105.046 7.68721 103.754 8.75795V7.53429H99.6938V28H103.754V21.6064C105.046 22.6465 106.737 23.2583 108.829 23.2583C112.735 23.2583 116.364 19.985 116.364 15.1822C116.364 10.3793 112.735 7.07538 108.829 7.07538ZM108.121 19.7403C105.937 19.7403 103.754 17.9966 103.754 15.1822C103.754 12.3677 105.937 10.5934 108.121 10.5934C110.582 10.5934 112.427 12.3677 112.427 15.1822C112.427 17.9966 110.582 19.7403 108.121 19.7403Z" fill="#131415"/>
<path d="M135.219 12.3912C134.892 11.9618 134.442 11.5937 133.87 11.287C133.297 10.9599 132.674 10.7963 131.999 10.7963C131.406 10.7963 130.864 10.919 130.373 11.1643C129.883 11.4097 129.637 11.8187 129.637 12.3912C129.637 12.9637 129.903 13.3727 130.435 13.618C130.987 13.8429 131.784 14.0781 132.827 14.3235C133.379 14.4461 133.931 14.6097 134.483 14.8142C135.056 15.0187 135.567 15.2947 136.017 15.6423C136.487 15.9695 136.865 16.3886 137.152 16.8998C137.438 17.3906 137.581 17.9938 137.581 18.7094C137.581 19.6091 137.407 20.3759 137.06 21.0097C136.733 21.6232 136.283 22.1241 135.71 22.5126C135.158 22.9011 134.504 23.1772 133.747 23.3407C133.011 23.5248 132.244 23.6168 131.447 23.6168C130.302 23.6168 129.187 23.4123 128.104 23.0034C127.02 22.574 126.12 21.9708 125.405 21.1938L127.828 18.9241C128.237 19.4557 128.768 19.8954 129.423 20.243C130.077 20.5906 130.803 20.7644 131.6 20.7644C131.866 20.7644 132.132 20.7337 132.398 20.6724C132.684 20.611 132.94 20.519 133.164 20.3963C133.41 20.2532 133.604 20.0692 133.747 19.8442C133.89 19.6193 133.962 19.3433 133.962 19.0161C133.962 18.4027 133.676 17.9631 133.103 17.6973C132.551 17.4315 131.713 17.1656 130.588 16.8998C130.036 16.7771 129.494 16.6238 128.963 16.4398C128.451 16.2353 127.991 15.9797 127.582 15.673C127.173 15.3458 126.846 14.9471 126.601 14.4768C126.355 14.0065 126.233 13.4238 126.233 12.7286C126.233 11.9107 126.396 11.2052 126.724 10.6123C127.071 10.0193 127.521 9.53877 128.073 9.17072C128.625 8.78222 129.249 8.49595 129.944 8.31193C130.639 8.1279 131.355 8.03589 132.091 8.03589C133.154 8.03589 134.187 8.21992 135.189 8.58797C136.211 8.95602 137.019 9.51832 137.612 10.2749L135.219 12.3912Z" fill="#131415"/>
<path fill-rule="evenodd" clip-rule="evenodd" d="M135.175 12.846L134.972 12.5797C134.677 12.1922 134.264 11.8512 133.723 11.5613L133.719 11.5593L133.715 11.5572C133.191 11.2575 132.621 11.1074 131.999 11.1074C131.45 11.1074 130.957 11.2206 130.512 11.4426C130.312 11.5429 130.176 11.6687 130.088 11.8152C130 11.9624 129.948 12.15 129.948 12.3912C129.948 12.6279 130.003 12.812 130.097 12.9577C130.192 13.1026 130.339 13.2301 130.559 13.3327C131.088 13.5476 131.864 13.7773 132.896 14.0202C133.462 14.1459 134.026 14.3132 134.59 14.5218C135.188 14.7356 135.725 15.025 136.201 15.3914C136.707 15.7449 137.114 16.1975 137.422 16.7455C137.741 17.2942 137.892 17.9539 137.892 18.7094C137.892 19.6481 137.711 20.4685 137.333 21.1578C136.983 21.8141 136.5 22.3522 135.887 22.7686C135.298 23.1827 134.606 23.4728 133.818 23.6438C133.057 23.8335 132.267 23.9279 131.447 23.9279C130.264 23.9279 129.112 23.7165 127.994 23.2945L127.991 23.2936L127.989 23.2926C126.866 22.8478 125.926 22.2194 125.176 21.4046L124.967 21.1776L127.865 18.4627L128.074 18.7344C128.453 19.2273 128.949 19.6393 129.569 19.9682C130.174 20.2902 130.85 20.4533 131.6 20.4533C131.842 20.4533 132.084 20.4254 132.328 20.3692L132.33 20.3687L132.332 20.3682C132.592 20.3126 132.817 20.2308 133.011 20.1254C133.215 20.0059 133.371 19.8565 133.485 19.6772C133.59 19.5125 133.651 19.2976 133.651 19.0161C133.651 18.7593 133.591 18.5574 133.486 18.3961C133.381 18.2343 133.216 18.0928 132.972 17.9795L132.97 17.9785L132.968 17.9776C132.447 17.7268 131.636 17.4673 130.519 17.2031C129.956 17.0779 129.403 16.9215 128.861 16.7338L128.854 16.7314L128.847 16.7286C128.312 16.5148 127.828 16.2462 127.396 15.9219L127.392 15.919L127.388 15.9159C126.945 15.5614 126.59 15.1288 126.325 14.6207C126.05 14.0944 125.922 13.4589 125.922 12.7286C125.922 11.869 126.094 11.1096 126.451 10.462L126.453 10.4584L126.455 10.4549C126.825 9.82397 127.306 9.30892 127.897 8.91406C128.481 8.50415 129.137 8.20368 129.864 8.01119C130.586 7.82013 131.329 7.72479 132.091 7.72479C133.191 7.72479 134.259 7.91521 135.295 8.2956C136.365 8.68083 137.223 9.27481 137.857 10.083L138.037 10.3137L135.175 12.846ZM128.073 9.17073C127.521 9.53879 127.071 10.0193 126.723 10.6123C126.396 11.2052 126.233 11.9107 126.233 12.7286C126.233 13.4238 126.355 14.0065 126.601 14.4768C126.846 14.9471 127.173 15.3458 127.582 15.673C127.991 15.9797 128.451 16.2353 128.962 16.4398C129.494 16.6238 130.036 16.7772 130.588 16.8998C131.713 17.1657 132.551 17.4315 133.103 17.6973C133.676 17.9631 133.962 18.4027 133.962 19.0161C133.962 19.3433 133.89 19.6193 133.747 19.8443C133.604 20.0692 133.41 20.2532 133.164 20.3963C132.939 20.519 132.684 20.611 132.398 20.6724C132.132 20.7337 131.866 20.7644 131.6 20.7644C130.803 20.7644 130.077 20.5906 129.423 20.243C128.869 19.9492 128.404 19.5896 128.026 19.1643C127.957 19.0865 127.891 19.0064 127.828 18.9241L125.405 21.1938C125.43 21.221 125.455 21.2481 125.481 21.2749C125.527 21.3232 125.573 21.3708 125.621 21.4176C126.299 22.0876 127.126 22.6161 128.104 23.0034C129.187 23.4123 130.302 23.6168 131.447 23.6168C132.244 23.6168 133.011 23.5248 133.747 23.3408C134.504 23.1772 135.158 22.9011 135.71 22.5126C136.283 22.1241 136.732 21.6232 137.06 21.0098C137.407 20.3759 137.581 19.6091 137.581 18.7094C137.581 17.9938 137.438 17.3906 137.152 16.8998C136.865 16.3887 136.487 15.9695 136.017 15.6423C135.567 15.2947 135.056 15.0187 134.483 14.8142C133.931 14.6097 133.379 14.4462 132.827 14.3235C131.784 14.0781 130.987 13.843 130.435 13.618C129.903 13.3727 129.637 12.9637 129.637 12.3912C129.637 11.8187 129.883 11.4097 130.373 11.1644C130.864 10.919 131.406 10.7963 131.999 10.7963C132.674 10.7963 133.297 10.9599 133.87 11.287C134.333 11.5354 134.717 11.824 135.019 12.1528C135.09 12.23 135.157 12.3095 135.219 12.3912L137.612 10.2749C137.019 9.51834 136.211 8.95604 135.189 8.58798C134.187 8.21993 133.154 8.0359 132.091 8.0359C131.355 8.0359 130.639 8.12792 129.944 8.31194C129.249 8.49597 128.625 8.78223 128.073 9.17073Z" fill="#131415"/>
<path d="M22.9765 6.42821C22.9765 8.95249 20.9191 10.9989 18.3812 10.9989C15.8433 10.9989 13.7859 8.95249 13.7859 6.42821C13.7859 3.9039 15.8433 1.85754 18.3812 1.85754C20.9191 1.85754 22.9765 3.9039 22.9765 6.42821Z" fill="url(#paint0_linear_1776_453)"/>
<path d="M117.897 21.0404C117.897 20.3861 118.133 19.8238 118.603 19.3535C119.094 18.8832 119.676 18.6481 120.351 18.6481C121.005 18.6481 121.578 18.873 122.069 19.3228C122.559 19.7727 122.805 20.3248 122.805 20.9791C122.805 21.6334 122.559 22.1957 122.069 22.666C121.598 23.1363 121.026 23.3714 120.351 23.3714C120.024 23.3714 119.707 23.3101 119.4 23.1874C119.114 23.0647 118.858 22.9011 118.634 22.6966C118.409 22.4922 118.225 22.2468 118.081 21.9605C117.959 21.6743 117.897 21.3676 117.897 21.0404Z" fill="#131415"/>
<path d="M141.084 23.1874H145.144V15.8454C145.144 12.6333 146.559 11.1649 148.712 11.1649C150.403 11.1649 151.726 12.4191 151.726 14.4688V23.1874H155.755V13.6428C155.755 9.91063 152.987 7.46331 149.788 7.46331C147.882 7.46331 146.327 8.03239 145.136 9.01414V0H141.084V23.1874Z" fill="#131415"/>
<defs>
<linearGradient id="paint0_linear_1776_453" x1="13.8132" y1="6.31339" x2="23.1704" y2="6.31339" gradientUnits="userSpaceOnUse">
<stop stop-color="#19AEFF"/>
<stop offset="1" stop-color="#015CD5"/>
</linearGradient>
</defs>
</svg>
