<svg xmlns="http://www.w3.org/2000/svg" width="40" height="51" viewBox="0 0 40 51" fill="none">
  <path d="M39.5065 6.27002L39.6784 30H0.323242V6.31579C0.323242 2.82767 3.15091 0 6.63902 0H33.1908C36.6611 0 39.4813 2.79986 39.5065 6.27002Z" fill="#9ABFEF"/>
  <path d="M6.22656 10H16.6543M6.73543 20.7545H26.277" stroke="#111C28" stroke-width="3.15789" stroke-linecap="round" stroke-linejoin="round"/>
  <path d="M0.32254 30V48.5928C0.32254 49.7555 1.2651 50.698 2.4278 50.698H33.362C36.8501 50.698 39.6777 47.8703 39.6777 44.3822V30H0.32254Z" fill="#111C28"/>
  <path d="M18.3949 44.5132H31.3929M6.54736 44.5132L11.242 40.9467C11.45 40.7887 11.45 40.476 11.242 40.318L6.54751 36.7515" stroke="#9ABFEF" stroke-width="2.36842" stroke-linecap="round" stroke-linejoin="round"/>
</svg>
