<svg width="20" height="20" fill="none" xmlns="http://www.w3.org/2000/svg"><path d="M10 0C4.475 0 0 4.591 0 10.254c0 4.53 2.865 8.374 6.838 9.728.5.097.683-.22.683-.493 0-.243-.008-.888-.013-1.743-2.781.618-3.368-1.376-3.368-1.376-.455-1.183-1.112-1.5-1.112-1.5-.906-.635.07-.622.07-.622 1.004.07 1.531 1.056 1.531 1.056.892 1.568 2.341 1.115 2.913.853.09-.663.347-1.115.633-1.371-2.22-.257-4.555-1.138-4.555-5.067 0-1.12.388-2.034 1.03-2.751-.113-.26-.45-1.302.087-2.714 0 0 .837-.275 2.75 1.051a9.38 9.38 0 0 1 2.5-.346c.85.005 1.7.118 2.5.346 1.9-1.326 2.737-1.051 2.737-1.051.538 1.412.2 2.455.1 2.714.638.717 1.025 1.632 1.025 2.751 0 3.939-2.337 4.806-4.562 5.058.35.308.675.937.675 1.897 0 1.373-.013 2.475-.013 2.808 0 .269.175.59.688.487 4-1.346 6.863-5.191 6.863-9.715C20 4.59 15.523 0 10 0Z" fill="#131415"/></svg>