<svg width="19" height="20" viewBox="0 0 19 20" fill="none" xmlns="http://www.w3.org/2000/svg">
<path fill-rule="evenodd" clip-rule="evenodd" d="M13.2964 15.2439C15.8023 14.9446 17.9843 13.4006 18.2585 11.9898C18.6906 9.76737 18.6549 6.56632 18.6549 6.56632C18.6549 2.22771 15.8124 0.955994 15.8124 0.955994C14.3791 0.297725 11.918 0.0209043 9.36112 0H9.2983C6.74141 0.0209043 4.28192 0.297725 2.84857 0.955994C2.84857 0.955994 0.00591311 2.22771 0.00591311 6.56632C0.00591311 6.82934 0.00455366 7.10599 0.00313842 7.39399C-0.000791978 8.19382 -0.00515261 9.08121 0.0179816 10.0074C0.12121 14.2504 0.795859 18.432 4.71875 19.4703C6.52751 19.9491 8.08047 20.0493 9.33117 19.9805C11.5993 19.8548 12.8725 19.1711 12.8725 19.1711L12.7977 17.5254C12.7977 17.5254 11.1769 18.0365 9.3566 17.9742C7.55312 17.9124 5.64921 17.7797 5.35752 15.5655C5.33058 15.371 5.31711 15.163 5.31711 14.9446C5.31711 14.9446 7.08751 15.3774 9.33117 15.4802C10.7031 15.5431 11.9897 15.3998 13.2964 15.2439ZM15.3019 12.1562V6.9029C15.3019 5.82924 15.0286 4.97604 14.4795 4.34482C13.9132 3.71359 13.1716 3.39001 12.2512 3.39001C11.186 3.39001 10.3795 3.79937 9.84634 4.61819L9.32783 5.48723L8.80942 4.61819C8.27615 3.79937 7.46961 3.39001 6.40457 3.39001C5.48402 3.39001 4.74246 3.71359 4.17621 4.34482C3.6271 4.97604 3.35372 5.82924 3.35372 6.9029V12.1562H5.43499V7.05731C5.43499 5.98246 5.88724 5.4369 6.79183 5.4369C7.79201 5.4369 8.29339 6.08408 8.29339 7.36376V10.1547H10.3624V7.36376C10.3624 6.08408 10.8636 5.4369 11.8638 5.4369C12.7684 5.4369 13.2207 5.98246 13.2207 7.05731V12.1562H15.3019Z" fill="#131415"/>
</svg>
