<svg width="24" height="24" viewBox="0 0 24 24" fill="none" xmlns="http://www.w3.org/2000/svg">
<path d="M1.99951 3H7.99951C9.06037 3 10.0778 3.42142 10.8279 4.17157C11.5781 4.92172 11.9995 5.93913 11.9995 7V21C11.9995 20.2044 11.6834 19.4414 11.1208 18.8787C10.5582 18.3161 9.79516 18 8.9995 18H1.99951V3Z" stroke="black" stroke-width="2" stroke-linecap="round" stroke-linejoin="round"/>
<path d="M22.0001 3H16.0001C14.9391 3 13.9217 3.42142 13.1716 4.17157C12.4214 4.92172 12 5.93913 12 7V21C12 20.2044 12.3161 19.4414 12.8787 18.8787C13.4413 18.3161 14.2044 18 15 18H22.0001V3Z" stroke="black" stroke-width="2" stroke-linecap="round" stroke-linejoin="round"/>
<path d="M6 7.99997H8" stroke="black" stroke-width="2" stroke-linecap="round" stroke-linejoin="round"/>
<path d="M6 12H8" stroke="black" stroke-width="2" stroke-linecap="round" stroke-linejoin="round"/>
<path d="M16.0005 7.99997H18.0004" stroke="black" stroke-width="2" stroke-linecap="round" stroke-linejoin="round"/>
<path d="M16.0005 12H18.0004" stroke="black" stroke-width="2" stroke-linecap="round" stroke-linejoin="round"/>
</svg>
