<svg xmlns="http://www.w3.org/2000/svg" width="43" height="42" viewBox="0 0 43 42" fill="none">
  <path d="M5.21695 8.7696C-0.996797 15.7247 -0.996797 26.272 5.21695 33.2271C5.60328 33.6595 6.27094 33.6579 6.68098 33.2479L12.4144 27.515C12.8245 27.105 12.8177 26.4434 12.4631 25.9845C10.1989 23.0555 10.1989 18.9412 12.4631 16.0121C12.8177 15.5533 12.8245 14.8917 12.4144 14.4816L6.68098 8.74872C6.27094 8.33871 5.60328 8.33717 5.21695 8.7696Z" fill="#111C28"/>
  <path d="M9.32692 37.3366C16.2825 43.5497 26.8306 43.5497 33.7862 37.3366C34.2187 36.9503 34.2172 36.2825 33.8071 35.8725L28.0737 30.1396C27.6637 29.7296 27.0022 29.7363 26.5434 30.0909C23.614 32.355 19.4992 32.355 16.5698 30.0909C16.111 29.7363 15.4495 29.7296 15.0394 30.1396L9.30603 35.8725C8.89594 36.2825 8.89441 36.9503 9.32692 37.3366Z" fill="#9ABFEF"/>
  <path d="M37.896 33.2271C44.1098 26.272 44.1098 15.7246 37.896 8.7696C37.5097 8.33717 36.842 8.33871 36.432 8.74872L30.6986 14.4816C30.2885 14.8917 30.2953 15.5533 30.6499 16.0121C32.914 18.9412 32.914 23.0555 30.6499 25.9845C30.2953 26.4434 30.2885 27.105 30.6986 27.515L36.432 33.2479C36.842 33.6579 37.5097 33.6595 37.896 33.2271Z" fill="#111C28"/>
  <path d="M33.7862 4.6598C26.8306 -1.55327 16.2825 -1.55327 9.32692 4.6598C8.89441 5.04614 8.89594 5.71389 9.30603 6.12395L15.0394 11.8568C15.4495 12.2669 16.111 12.2601 16.5698 11.9055C19.4992 9.64144 23.614 9.64144 26.5434 11.9055C27.0022 12.2601 27.6637 12.2669 28.0737 11.8568L33.8071 6.12395C34.2172 5.71389 34.2187 5.04614 33.7862 4.6598Z" fill="#9ABFEF"/>
</svg>
