<svg width="24" height="24" viewBox="0 0 24 24" fill="none" xmlns="http://www.w3.org/2000/svg">
<path d="M3.08496 11.33L11.5395 2.87549C12.7068 1.70817 14.5994 1.70817 15.7667 2.87549C16.9341 4.04281 16.9341 5.93542 15.7667 7.10275M15.7667 7.10275L9.3818 13.4877M15.7667 7.10275L9.47003 13.4001M15.7667 7.10275C16.9341 5.93542 18.8268 5.93586 19.9942 7.10318L20.0382 7.14721C21.2055 8.31454 21.2055 10.2071 20.0382 11.3745L12.3918 19.0208C12.0027 19.4099 12.0027 20.0408 12.3918 20.4298L13.9619 22M13.6524 4.98909L7.39957 11.2419C6.23225 12.4092 6.23225 14.3018 7.39957 15.4692C8.5669 16.6364 10.4595 16.6364 11.6268 15.4692L17.8797 9.21634" stroke="black" stroke-width="2" stroke-linecap="round"/>
</svg>
