<svg xmlns="http://www.w3.org/2000/svg" width="41" height="51" viewBox="0 0 41 51" fill="none">
  <path d="M0.515625 42.4V8C0.515625 3.58172 4.09735 0 8.51563 0L32.9949 6.18681e-06C37.4132 7.02843e-06 40.9949 3.58173 40.9949 8.00001V42.4C40.9949 46.8183 37.4132 50.4 32.9949 50.4H8.51563C4.09735 50.4 0.515625 46.8183 0.515625 42.4Z" fill="#9ABFEF"/>
  <path d="M6.0354 26.6729H12.6934C12.9022 26.6729 13.0887 26.5375 13.1602 26.334L16.9278 15.6116C17.0858 15.1619 17.6977 15.159 17.8597 15.6072L22.9158 34.6874C23.0759 35.1305 23.6786 35.1343 23.8439 34.6932L26.7269 27.0015C26.8011 26.8034 26.985 26.6729 27.1899 26.6729H34.7757" stroke="#111C28" stroke-width="2.86364" stroke-linecap="round"/>
</svg>
