<svg width="1168" height="211" viewBox="0 0 1168 211" fill="none" xmlns="http://www.w3.org/2000/svg">
<path d="M1056.93 167.355V0.09375H1085.84V66.631C1093.64 54.2413 1107.17 46.4404 1123.92 46.4404C1149.85 46.4404 1167.29 63.4188 1167.29 89.3454V167.355H1138.38V96.2285C1138.38 82.0033 1129.43 72.1375 1115.43 72.1375C1096.62 72.1375 1085.84 88.1982 1085.84 115.272V167.355H1056.93Z" fill="#22222A"/>
<path d="M1000.65 169.191C969.909 169.191 949.26 151.524 948.113 126.057H976.334C977.022 135.005 986.429 144.641 1000.65 144.641C1012.13 144.641 1020.16 139.594 1020.16 132.251C1020.16 126.057 1015.34 122.386 1007.31 120.78L988.723 116.879C970.368 112.979 953.619 104.031 953.619 80.6278C953.619 62.0432 970.598 46.4414 998.13 46.4414C1024.06 46.4414 1044.25 60.6666 1047.23 84.2988H1019.01C1017.63 74.6624 1007.77 69.6147 998.13 69.6147C988.953 69.6147 982.299 73.7446 982.299 80.6278C982.299 86.3637 987.347 89.8053 995.148 91.4114L1013.73 95.3119C1033.92 99.4418 1049.52 107.243 1049.52 131.563C1049.52 152.213 1030.02 169.191 1000.65 169.191Z" fill="#22222A"/>
<path d="M782.077 210.261V48.2769H810.986V62.2727C817.41 52.8657 830.718 46.4414 846.32 46.4414C880.277 46.4414 902.073 71.6797 902.073 107.702C902.073 143.953 878.9 169.191 844.255 169.191C830.259 169.191 817.64 163.685 810.986 155.195V210.261H782.077ZM841.043 144.182C859.627 144.182 872.476 129.728 872.476 107.702C872.476 85.9049 859.627 71.4502 841.043 71.4502C821.999 71.4502 809.151 85.9049 809.151 107.702C809.151 129.728 821.999 144.182 841.043 144.182Z" fill="#22222A"/>
<path d="M587.187 167.356V48.2769H616.097V66.8614C622.521 54.7012 633.993 46.4414 650.512 46.4414C669.326 46.4414 682.404 54.4718 687.681 68.9264C694.106 56.5367 708.331 46.4414 727.145 46.4414C752.613 46.4414 769.362 62.961 769.362 86.5932V167.356H740.452V94.6235C740.452 80.1689 732.422 70.9913 718.656 70.9913C701.907 70.9913 692.729 85.446 692.729 106.784V167.356H663.82V94.6235C663.82 80.1689 655.789 70.9913 642.023 70.9913C625.504 70.9913 616.097 85.6754 616.097 107.013V167.356H587.187Z" fill="#22222A"/>
<path d="M573.66 48.2764V167.355H544.751V149C536.95 161.16 523.184 169.191 506.664 169.191C480.738 169.191 463.3 152.212 463.3 126.286V48.2764H492.209V119.632C492.209 133.628 501.158 143.493 515.153 143.493C533.738 143.493 544.751 127.433 544.751 100.588V48.2764H573.66Z" fill="#22222A"/>
<path d="M399.866 169.19C384.264 169.19 371.186 162.307 365.909 153.359V167.355H337V0.09375H365.909V61.8128C372.792 52.6352 385.641 46.4404 400.325 46.4404C434.97 46.4404 456.767 71.4492 456.767 107.7C456.767 143.952 435.2 169.19 399.866 169.19ZM395.736 144.181C414.55 144.181 427.399 129.497 427.399 107.7C427.399 85.9038 414.55 71.4492 395.736 71.4492C376.693 71.4492 363.844 85.9038 363.844 107.7C363.844 129.727 376.693 144.181 395.736 144.181Z" fill="#22222A"/>
<path d="M249.075 56.9001C248.912 21.6241 223.609 0.09375 187.327 0.09375C151.045 0.09375 125.842 21.951 125.804 56.6863C125.804 58.2834 125.666 70.8218 125.49 86.9193C125.477 88.1643 123.717 88.3907 123.39 87.1834C116.661 61.6538 94.0245 46.6254 63.7034 46.6254C27.283 46.6254 2.1685 68.5204 2.1685 103.319C2.1685 104.048 0.910889 167.356 0.910889 167.356H250.308C250.308 167.356 249.327 61.3269 249.088 56.9001H249.075Z" fill="#22222A"/>
<rect x="906.578" y="137.733" width="29.4435" height="29.4435" fill="#22222A"/>
</svg>
