<svg width="20" height="17" fill="none" xmlns="http://www.w3.org/2000/svg"><path d="M20 1.924a8.55 8.55 0 0 1-2.362.647A4.077 4.077 0 0 0 19.44.305a8.195 8.195 0 0 1-2.6.993A4.099 4.099 0 0 0 9.75 4.101c0 .324.027.637.095.934-3.409-.166-6.425-1.8-8.451-4.288A4.128 4.128 0 0 0 .83 2.82c0 1.42.732 2.679 1.822 3.408A4.05 4.05 0 0 1 .8 5.723v.045a4.119 4.119 0 0 0 3.285 4.028 4.09 4.09 0 0 1-1.075.135c-.262 0-.527-.015-.776-.07.531 1.624 2.039 2.818 3.831 2.856a8.239 8.239 0 0 1-5.084 1.75c-.336 0-.658-.016-.98-.057a11.543 11.543 0 0 0 6.29 1.84c7.544 0 11.67-6.25 11.67-11.668 0-.18-.007-.356-.016-.53A8.18 8.18 0 0 0 20 1.925Z" fill="#131415"/></svg>