<svg width="1168" height="211" viewBox="0 0 1168 211" fill="none" xmlns="http://www.w3.org/2000/svg">
<path d="M1056.93 168.094V0.833008H1085.84V67.3702C1093.64 54.9805 1107.17 47.1796 1123.92 47.1796C1149.85 47.1796 1167.29 64.1581 1167.29 90.0847V168.094H1138.38V96.9678C1138.38 82.7426 1129.43 72.8767 1115.43 72.8767C1096.62 72.8767 1085.84 88.9375 1085.84 116.011V168.094H1056.93Z" fill="white"/>
<path d="M1000.65 169.93C969.909 169.93 949.26 152.264 948.113 126.796H976.334C977.022 135.744 986.429 145.38 1000.65 145.38C1012.13 145.38 1020.16 140.333 1020.16 132.991C1020.16 126.796 1015.34 123.125 1007.31 121.519L988.723 117.618C970.368 113.718 953.619 104.77 953.619 81.367C953.619 62.7825 970.598 47.1807 998.13 47.1807C1024.06 47.1807 1044.25 61.4059 1047.23 85.038H1019.01C1017.63 75.4016 1007.77 70.354 998.13 70.354C988.953 70.354 982.299 74.4839 982.299 81.367C982.299 87.103 987.347 90.5446 995.148 92.1506L1013.73 96.0511C1033.92 100.181 1049.52 107.982 1049.52 132.302C1049.52 152.952 1030.02 169.93 1000.65 169.93Z" fill="white"/>
<path d="M782.077 211V49.0162H810.986V63.0119C817.41 53.6049 830.718 47.1807 846.32 47.1807C880.277 47.1807 902.073 72.4189 902.073 108.441C902.073 144.692 878.9 169.93 844.255 169.93C830.259 169.93 817.64 164.424 810.986 155.935V211H782.077ZM841.043 144.922C859.627 144.922 872.476 130.467 872.476 108.441C872.476 86.6441 859.627 72.1895 841.043 72.1895C821.999 72.1895 809.151 86.6441 809.151 108.441C809.151 130.467 821.999 144.922 841.043 144.922Z" fill="white"/>
<path d="M587.187 168.095V49.0162H616.097V67.6007C622.521 55.4405 633.993 47.1807 650.512 47.1807C669.326 47.1807 682.404 55.211 687.681 69.6657C694.106 57.276 708.331 47.1807 727.145 47.1807C752.613 47.1807 769.362 63.7003 769.362 87.3324V168.095H740.452V95.3628C740.452 80.9081 732.422 71.7306 718.656 71.7306C701.907 71.7306 692.729 86.1852 692.729 107.523V168.095H663.82V95.3628C663.82 80.9081 655.789 71.7306 642.023 71.7306C625.504 71.7306 616.097 86.4147 616.097 107.752V168.095H587.187Z" fill="white"/>
<path d="M573.66 49.0156V168.094H544.751V149.739C536.95 161.899 523.184 169.93 506.664 169.93C480.738 169.93 463.3 152.951 463.3 127.025V49.0156H492.209V120.371C492.209 134.367 501.158 144.233 515.153 144.233C533.738 144.233 544.751 128.172 544.751 101.328V49.0156H573.66Z" fill="white"/>
<path d="M399.866 169.929C384.264 169.929 371.186 163.046 365.909 154.098V168.094H337V0.833008H365.909V62.552C372.792 53.3745 385.641 47.1796 400.325 47.1796C434.97 47.1796 456.767 72.1884 456.767 108.44C456.767 144.691 435.2 169.929 399.866 169.929ZM395.736 144.92C414.55 144.92 427.399 130.236 427.399 108.44C427.399 86.6431 414.55 72.1884 395.736 72.1884C376.693 72.1884 363.844 86.6431 363.844 108.44C363.844 130.466 376.693 144.92 395.736 144.92Z" fill="white"/>
<path d="M249.075 57.6393C248.912 22.3633 223.609 0.833008 187.327 0.833008C151.045 0.833008 125.842 22.6903 125.804 57.4255C125.804 59.0227 125.666 71.5611 125.49 87.6585C125.477 88.9036 123.717 89.1299 123.39 87.9226C116.661 62.3931 94.0245 47.3646 63.7034 47.3646C27.283 47.3646 2.1685 69.2597 2.1685 104.058C2.1685 104.787 0.910889 168.095 0.910889 168.095H250.308C250.308 168.095 249.327 62.0661 249.088 57.6393H249.075Z" fill="white"/>
<rect x="906.578" y="138.473" width="29.4435" height="29.4435" fill="white"/>
</svg>
