<svg width="24" height="24" viewBox="0 0 24 24" fill="none" xmlns="http://www.w3.org/2000/svg">
<path d="M4.72718 5.79152V4.72727C4.72718 4.00396 5.01452 3.31026 5.52598 2.7988C6.03745 2.28734 6.73114 2 7.45446 2H16.5454C17.2687 2 17.9624 2.28734 18.4738 2.7988C18.9853 3.31026 19.2726 4.00396 19.2726 4.72727V5.79152M4.72718 5.79152C5.01203 5.69091 5.31749 5.63636 5.63627 5.63636H18.3635C18.6823 5.63636 18.9878 5.69091 19.2726 5.79152M4.72718 5.79152C4.19532 5.97956 3.73486 6.3279 3.40923 6.78856C3.0836 7.24921 2.90883 7.79951 2.909 8.36364V9.42788M19.2726 5.79152C19.8045 5.97956 20.265 6.3279 20.5906 6.78856C20.9162 7.24921 21.091 7.79951 21.0908 8.36364V9.42788M2.909 9.42788C3.19385 9.32727 3.49931 9.27273 3.81809 9.27273H20.1817C20.4914 9.27237 20.7988 9.32484 21.0908 9.42788M2.909 9.42788C1.84961 9.80243 1.09082 10.8121 1.09082 12V19.2727C1.09082 19.996 1.37816 20.6897 1.88962 21.2012C2.40108 21.7127 3.09478 22 3.81809 22H20.1817C20.905 22 21.5987 21.7127 22.1102 21.2012C22.6217 20.6897 22.909 19.996 22.909 19.2727V12C22.9092 11.4359 22.7344 10.8856 22.4088 10.4249C22.0831 9.96427 21.6227 9.61592 21.0908 9.42788" stroke="black" stroke-width="2" stroke-linecap="round" stroke-linejoin="round"/>
</svg>
