<svg width="120" height="120" viewBox="0 0 120 120" fill="none" xmlns="http://www.w3.org/2000/svg">
<path d="M15.8054 25.6484C24.5399 25.6484 31.6107 32.7193 31.6107 41.4538C31.6107 43.8107 31.1255 46.029 30.155 48.0394C29.8084 48.8019 29.8777 49.7724 30.5016 50.3963L55.8734 75.9067C56.2893 76.3227 56.2893 77.0159 55.8734 77.4318L51.7141 81.5911C51.2981 82.0071 50.6049 82.0071 50.189 81.5911L36.5326 67.9347C35.2848 66.6869 33.2745 66.6869 32.0267 67.9347L30.4323 69.5291C29.8084 70.153 29.7391 71.1235 30.0857 71.8861C31.0562 73.8964 31.6107 76.184 31.6107 78.4716C31.6107 87.2062 24.5399 94.277 15.8054 94.277C7.07082 94.3463 0 87.2755 0 78.4716C0 69.7371 7.07082 62.6663 15.8054 62.6663C18.1623 62.6663 20.3806 63.2209 22.3909 64.1914C23.1535 64.6073 24.124 64.4686 24.7479 63.8447L26.273 62.2503C27.5208 61.0026 27.5208 58.9922 26.273 57.7444L24.6786 56.15C24.0547 55.5261 23.1535 55.4568 22.3216 55.8034C20.3113 56.7046 18.093 57.2592 15.736 57.2592C7.07082 57.3285 0 50.2577 0 41.5231C0 32.7886 7.07082 25.6484 15.8054 25.6484Z" fill="#94C83C"/>
<path d="M78.4721 88.3871C87.2067 88.3871 94.2775 95.4579 94.2775 104.192C94.2775 112.927 87.2067 119.998 78.4721 119.998C69.7376 119.998 62.6668 112.927 62.6668 104.192C62.6668 101.836 63.9839 98.8547 64.9544 96.8443C65.3703 96.0818 64.4691 95.8738 63.8452 95.2499L62.2508 93.6555C61.0031 92.4077 58.9927 92.4077 57.7449 93.6555L56.1505 95.2499C55.5266 95.8738 55.4573 96.8443 55.8039 97.6069C56.7744 99.6172 57.329 101.905 57.329 104.192C57.329 112.927 50.2582 119.998 41.5236 119.998C32.7891 119.998 25.7183 112.927 25.7183 104.192C25.7183 95.4579 32.7891 88.3871 41.5236 88.3871C43.8806 88.3871 46.0989 88.9417 48.1092 89.9122C48.8717 90.3281 49.8422 90.1894 50.4661 89.5655L75.7686 64.1244C76.1845 63.7085 76.8777 63.7085 77.2937 64.1244L81.5223 68.3531C81.9382 68.769 81.9382 69.4622 81.5223 69.8782L67.9352 83.3959C66.6874 84.6437 66.6874 86.654 67.9352 87.9018L69.5296 89.4962C70.1535 90.1201 71.124 90.1895 71.8866 89.8428C73.8969 88.9417 76.1845 88.3871 78.4721 88.3871Z" fill="#6BA543"/>
<path d="M104.191 62.6673C112.925 62.6673 119.996 69.7381 119.996 78.4726C119.996 87.2072 112.925 94.278 104.191 94.278C95.4562 94.278 88.3853 87.2072 88.3853 78.4726C88.3853 76.1157 88.9399 73.8974 89.9104 71.8871C90.3263 71.1245 90.1877 70.154 89.5638 69.5301L63.9841 44.089C63.5681 43.6731 63.5681 42.9799 63.9841 42.564L68.2127 38.3353C68.6286 37.9194 69.3218 37.9194 69.7378 38.3353L84.0874 52.7543C84.9192 53.5861 86.3057 53.5861 87.1375 52.7543L89.4252 50.4666C90.0491 49.8427 90.1184 48.9416 89.7718 48.1097C88.8706 46.0994 88.316 43.8811 88.316 41.5241C88.316 32.7896 95.3868 25.7188 104.121 25.7188C112.856 25.7188 119.927 32.7896 119.927 41.5241C119.927 50.2587 112.856 57.3295 104.121 57.3295C101.764 57.3295 99.5461 56.8442 97.5358 55.8737C96.7733 55.5271 95.8028 55.5964 95.1789 56.2203L93.5845 57.8147C92.3367 59.0625 92.3367 61.0729 93.5845 62.3207L95.1789 63.9151C95.8028 64.539 96.7733 64.6083 97.5358 64.2617C99.6155 63.2218 101.834 62.6673 104.191 62.6673Z" fill="#94C83C"/>
<path d="M41.5239 0C50.2584 0 57.3292 7.07082 57.3292 15.8054C57.3292 18.1623 56.844 20.3806 55.8735 22.3909C55.5269 23.1535 55.5962 24.124 56.2201 24.7479L58.5077 27.0355C59.3396 27.8674 60.726 27.8674 61.5579 27.0355L63.8455 24.7479C64.4694 24.124 64.5387 23.2228 64.1921 22.3909C63.2909 20.3806 62.7363 18.1623 62.7363 15.8054C62.667 7.07082 69.7378 0 78.4724 0C87.2069 0 94.2777 7.07082 94.2777 15.8054C94.2777 24.5399 87.2069 31.6107 78.4724 31.6107C76.1154 31.6107 73.8971 31.1255 71.8868 30.155C71.1243 29.8084 70.1538 29.8777 69.5299 30.5016L44.0888 55.9427C43.6728 56.3586 42.9796 56.3586 42.5637 55.9427L38.4044 51.7834C37.9885 51.3675 37.9885 50.6742 38.4044 50.2583L52.754 35.9087C53.5859 35.0768 53.5859 33.6904 52.754 32.8585L50.4664 30.5709C49.8425 29.947 48.9413 29.8777 48.1788 30.2243C46.1684 31.1255 43.9501 31.6801 41.5932 31.6801C32.7893 31.6801 25.6492 24.5399 25.6492 15.8054C25.6492 7.07082 32.7893 0 41.5239 0Z" fill="#6BA543"/>
</svg>
