<svg width="158" height="157" viewBox="0 0 158 157" fill="none" xmlns="http://www.w3.org/2000/svg">
<path d="M42.6405 90.4775H2.06348C2.07117 90.6774 2.07629 90.8748 2.08655 91.0722C2.10193 91.4542 2.13013 91.8335 2.1532 92.2155C2.16345 92.3796 2.17114 92.5436 2.18396 92.7051C2.21472 93.146 2.25317 93.587 2.29419 94.0253C2.30444 94.1253 2.31213 94.2253 2.32239 94.3201C2.36853 94.8097 2.42236 95.2994 2.47876 95.7838C2.48132 95.83 2.48645 95.8787 2.49414 95.9248C2.55822 96.4478 2.62488 96.9733 2.70178 97.4937C2.70178 97.5014 2.70178 97.5091 2.70434 97.5142C3.17217 100.756 3.87296 103.96 4.80126 107.102C4.80638 107.114 4.81151 107.127 4.81407 107.14C4.96019 107.637 5.114 108.129 5.27037 108.619C5.28062 108.647 5.29088 108.678 5.29857 108.706C5.30626 108.734 5.31651 108.763 5.32677 108.793C5.47032 109.237 5.62156 109.678 5.77281 110.121C5.81126 110.232 5.84971 110.344 5.89073 110.457C6.02659 110.839 6.16502 111.221 6.30857 111.606C6.37522 111.777 6.43931 111.949 6.50339 112.123C6.629 112.441 6.74949 112.757 6.8751 113.072C6.96994 113.31 7.06736 113.549 7.16733 113.784C7.26987 114.033 7.37241 114.277 7.47751 114.525C7.60568 114.828 7.74155 115.128 7.87485 115.43C7.95431 115.61 8.03635 115.787 8.11581 115.966C8.27987 116.327 8.44906 116.689 8.62082 117.048C8.67721 117.163 8.73104 117.278 8.78744 117.391C8.98739 117.807 9.1899 118.214 9.39498 118.622C9.43087 118.683 9.45907 118.747 9.49239 118.809C9.7231 119.26 9.95894 119.709 10.2025 120.155C10.2127 120.175 10.2255 120.193 10.2332 120.216C10.2845 120.308 10.3409 120.398 10.3922 120.491L45.0476 99.6162L45.1758 99.5393C43.8095 96.658 42.9584 93.5921 42.6405 90.4775Z" fill="#93D500"/>
<path d="M52.6146 109.106L52.5172 109.204L23.9346 137.784C24.0807 137.919 24.2268 138.06 24.3781 138.191C24.6447 138.435 24.9164 138.673 25.1855 138.912C25.3265 139.035 25.4624 139.158 25.6034 139.281C25.9264 139.56 26.2545 139.832 26.5801 140.106C26.6698 140.18 26.7544 140.252 26.8441 140.327C27.2595 140.668 27.6791 141.005 28.1028 141.337C28.5078 141.657 28.9154 141.967 29.3307 142.28C29.3486 142.29 29.3614 142.3 29.3768 142.313C31.1013 143.602 32.8858 144.808 34.7242 145.928C34.7857 145.969 34.8498 146.005 34.9139 146.046C35.2651 146.253 35.6137 146.461 35.9675 146.666L36.6135 147.035C36.8185 147.153 37.021 147.266 37.2261 147.379C37.5978 147.581 37.9695 147.784 38.3438 147.981C38.3951 148.009 38.4463 148.037 38.5002 148.063C39.5384 148.607 40.5945 149.112 41.6609 149.599L42.6761 147.135L57.052 112.228L57.1032 112.1C55.5344 111.259 54.0296 110.265 52.6146 109.106Z" fill="#4D5A31"/>
<path d="M49.639 106.258C49.3318 105.916 49.0343 105.566 48.7469 105.207C48.4905 104.892 48.2444 104.574 48.006 104.251C47.7317 103.882 47.4651 103.508 47.2114 103.128C46.9576 102.746 46.7064 102.362 46.4705 101.972L11.7715 122.872C12.3047 123.759 12.8584 124.62 13.4275 125.471C13.4454 125.502 13.4634 125.533 13.4839 125.561C13.489 125.574 13.4967 125.582 13.5044 125.594C13.5223 125.62 13.5403 125.651 13.5582 125.679C13.5608 125.682 13.5633 125.684 13.5633 125.689C13.6095 125.756 13.6556 125.823 13.7018 125.892C13.7043 125.894 13.7069 125.899 13.712 125.905C13.7172 125.91 13.7146 125.907 13.7146 125.91C14.317 126.799 14.9374 127.676 15.5757 128.532C15.5885 128.55 15.6039 128.568 15.6167 128.586C15.6321 128.604 15.6449 128.622 15.6577 128.64C15.9371 129.006 16.214 129.373 16.5011 129.737C16.5395 129.786 16.5754 129.832 16.6164 129.878C16.9087 130.255 17.2086 130.626 17.5136 130.993C17.5854 131.08 17.6598 131.167 17.7315 131.257C18.0058 131.585 18.2801 131.911 18.5595 132.234C18.68 132.372 18.8031 132.513 18.9261 132.649C19.1645 132.921 19.4004 133.192 19.6439 133.459C19.7772 133.605 19.9156 133.754 20.0515 133.9C20.113 133.969 20.1745 134.033 20.2386 134.102C20.4155 134.295 20.5924 134.487 20.7718 134.677C20.8436 134.751 20.9205 134.825 20.9923 134.902C21.3076 135.23 21.628 135.561 21.951 135.884L50.5772 107.263C50.2491 106.935 49.9415 106.597 49.639 106.258Z" fill="#6BA43A"/>
<path d="M87.5802 109.091C87.2649 109.345 86.947 109.593 86.624 109.832L86.6932 109.952L107.565 144.592C108.531 143.962 109.488 143.31 110.421 142.626C112.441 141.137 114.394 139.522 116.278 137.784L87.693 109.204L87.5802 109.091Z" fill="#4D5A31"/>
<path d="M104.533 144.877L103.826 143.7L84.3432 111.367C83.9484 111.603 83.546 111.818 83.1435 112.034C82.7359 112.254 82.3283 112.457 81.913 112.654C78.1704 114.428 74.1201 115.335 70.0621 115.335C67.4038 115.335 64.7481 114.951 62.1795 114.184C61.7411 114.054 61.313 113.882 60.8824 113.728C60.4492 113.577 60.0108 113.444 59.5853 113.269L45.2196 148.153L44.6582 149.519L44.1763 150.691L44.1737 150.696C44.2096 150.711 44.2481 150.724 44.284 150.739C44.325 150.755 44.3634 150.768 44.4019 150.786H44.407C44.4173 150.791 44.4275 150.793 44.4352 150.796C44.7736 150.937 45.1145 151.055 45.4555 151.188C45.8836 151.355 46.3091 151.524 46.7372 151.68C46.9576 151.76 47.173 151.852 47.3909 151.929H47.3934C51.8955 153.518 56.5512 154.632 61.2848 155.254C61.472 155.277 61.654 155.302 61.8411 155.328C62.0334 155.351 62.2282 155.369 62.423 155.392C62.787 155.433 63.151 155.474 63.5176 155.51L63.7893 155.533C64.2379 155.577 64.6866 155.615 65.1326 155.646C65.2864 155.659 65.4402 155.664 65.5915 155.677C65.9837 155.702 66.3759 155.725 66.7681 155.743C67.0091 155.759 67.25 155.764 67.491 155.774C67.8037 155.784 68.1139 155.797 68.4266 155.807C68.8753 155.818 69.329 155.82 69.7802 155.823C69.8878 155.823 69.9929 155.825 70.1006 155.828C73.8817 155.828 77.6628 155.513 81.4029 154.884C81.4644 154.874 81.5285 154.864 81.5926 154.856C81.9874 154.787 82.3821 154.713 82.7769 154.641C83.0025 154.597 83.2306 154.554 83.4511 154.51C83.6818 154.462 83.9151 154.415 84.1458 154.364C84.5303 154.285 84.9148 154.2 85.3019 154.11C85.3711 154.095 85.4403 154.082 85.5096 154.062C91.1953 152.739 96.6863 150.688 101.844 147.973V147.971C102.182 147.794 102.513 147.591 102.849 147.407C103.249 147.189 103.646 146.961 104.046 146.733C104.32 146.576 104.6 146.43 104.874 146.266C104.877 146.264 104.879 146.261 104.882 146.261H104.884C104.889 146.258 104.892 146.256 104.897 146.253L104.902 146.248C104.905 146.248 104.907 146.246 104.91 146.246C104.915 146.243 104.918 146.24 104.923 146.238C104.938 146.228 104.953 146.22 104.969 146.21C105.056 146.156 105.146 146.105 105.235 146.051L104.533 144.877ZM52.6306 66.3784C52.9459 66.122 53.2663 65.8759 53.5868 65.635L53.5175 65.517L32.6458 30.8744C31.6768 31.5076 30.7207 32.1612 29.785 32.8457C27.7676 34.3325 25.8116 35.9449 23.9326 37.6804L52.5178 66.263L52.6306 66.3784Z" fill="#93D500"/>
<path d="M21.9508 39.585C21.6253 39.9106 21.3176 40.2464 20.9998 40.5745C20.6845 40.9052 20.3615 41.2333 20.0513 41.5666C17.9643 43.8228 16.0322 46.2174 14.2681 48.734C14.1835 48.8494 14.1015 48.9724 14.0169 49.0904C13.8221 49.3775 13.6273 49.662 13.4376 49.9491C13.2376 50.2465 13.0402 50.549 12.848 50.8489C12.7762 50.9591 12.7044 51.0719 12.6352 51.1821C6.05992 61.495 2.53772 73.192 2.06348 84.9865C2.04553 85.4454 2.03528 85.9043 2.02502 86.3605C2.01733 86.8168 2.00195 87.2757 2.00195 87.732H42.4867C42.4867 87.2757 42.5277 86.8194 42.5534 86.3605C42.5765 85.9017 42.5816 85.4428 42.6277 84.9865C43.1507 79.7161 45.1861 74.5686 48.7339 70.2466C49.021 69.8954 49.3466 69.5647 49.6567 69.2264C49.9618 68.8854 50.2489 68.5342 50.577 68.2061L21.9508 39.585ZM105.481 29.5363C105.427 29.5029 105.368 29.4696 105.315 29.4363C104.958 29.2184 104.599 29.0082 104.238 28.798C104.03 28.6775 103.82 28.5596 103.613 28.4417C103.4 28.3237 103.192 28.2058 102.979 28.0905C102.613 27.8912 102.247 27.693 101.88 27.4957C101.821 27.4675 101.764 27.4368 101.705 27.406C99.3315 26.1653 96.8937 25.0733 94.4045 24.1248C94.3405 24.0992 94.2764 24.0735 94.2123 24.0505C93.6688 23.8479 93.1254 23.6454 92.5768 23.4557C88.1528 21.9126 83.5821 20.8277 78.9366 20.2181L78.3675 20.1412C78.1753 20.1181 77.9856 20.1002 77.7959 20.0796C77.4293 20.0361 77.0653 19.9951 76.6961 19.9592C76.5962 19.9489 76.4936 19.9438 76.3885 19.931C75.9553 19.8925 75.5169 19.8541 75.0812 19.8207L74.571 19.79C74.1993 19.7669 73.8199 19.7387 73.4482 19.7233C73.2483 19.7131 73.0483 19.7054 72.851 19.7003V60.2773C74.9325 60.4926 76.9961 60.9361 78.9981 61.6154L108.865 31.7537C107.755 30.9846 106.635 30.2361 105.481 29.5363Z" fill="#4D5A31"/>
<path d="M68.7337 19.6669C68.2748 19.6772 67.816 19.6772 67.3597 19.6951C64.4963 19.8105 61.638 20.1027 58.8029 20.5795C58.7413 20.5898 58.6798 20.6 58.6157 20.6103C58.2184 20.6795 57.8236 20.7513 57.4288 20.8256C57.2058 20.8692 56.9802 20.9102 56.7546 20.9538C56.5214 20.9999 56.2907 21.0486 56.0574 21.0999C55.6729 21.1794 55.2883 21.264 54.9064 21.3537C54.8346 21.3665 54.7654 21.3845 54.6962 21.3998C49.0135 22.7266 43.5235 24.7734 38.3592 27.4906C38.0234 27.6701 37.6953 27.8726 37.3595 28.0546C36.9596 28.275 36.5597 28.5006 36.1623 28.7288C35.8675 28.9005 35.5676 29.0569 35.2728 29.2312C35.2703 29.2338 35.2651 29.2363 35.2626 29.2363C35.2421 29.2492 35.2216 29.262 35.201 29.2722C35.1241 29.3209 35.0447 29.3594 34.9678 29.4055L34.9703 29.4107L35.6804 30.5873L55.8677 64.0994C56.2625 63.8636 56.6649 63.6457 57.0674 63.4304C57.4724 63.2125 57.8826 63.0074 58.2953 62.8126C61.1482 61.451 64.2146 60.5916 67.3597 60.2722C67.816 60.226 68.2723 60.1876 68.7311 60.1645C69.1874 60.1414 69.6463 60.1184 70.1052 60.1184V19.6387C69.6463 19.6387 69.19 19.6592 68.7337 19.6669Z" fill="#6BA43A"/>
<path d="M138.124 84.3867C138.104 84.0226 138.083 83.6612 138.058 83.2946C138.048 83.1133 138.036 82.9321 138.022 82.7512C137.993 82.3231 137.958 81.895 137.917 81.4669C137.909 81.3566 137.899 81.2464 137.888 81.1362C137.842 80.6568 137.791 80.18 137.735 79.7032C137.729 79.6648 137.727 79.6263 137.722 79.5879L137.714 79.534C137.652 79.0188 137.583 78.5035 137.511 77.9908L137.504 77.9421C137.036 74.7064 136.337 71.5083 135.412 68.3727C135.404 68.3496 135.399 68.3317 135.392 68.3112C135.245 67.8216 135.094 67.3371 134.943 66.8526C134.92 66.7885 134.899 66.7244 134.879 66.6603C134.735 66.222 134.589 65.7862 134.438 65.3504L134.315 64.9966C134.182 64.6198 134.043 64.243 133.905 63.8661C133.836 63.6867 133.769 63.5072 133.697 63.3304C133.579 63.0176 133.459 62.7074 133.333 62.3998C133.236 62.1512 133.136 61.9076 133.036 61.6667C132.936 61.4232 132.833 61.1848 132.733 60.9438C132.6 60.6362 132.464 60.3286 132.328 60.0235C132.251 59.8518 132.174 59.6774 132.095 59.5031C131.928 59.1391 131.757 58.7725 131.585 58.4085C131.531 58.3009 131.477 58.1881 131.423 58.0778C131.223 57.6626 131.018 57.2447 130.808 56.8346C130.78 56.7782 130.749 56.7192 130.721 56.6628C130.488 56.2091 130.247 55.7528 130.006 55.3042C129.995 55.2888 129.988 55.2708 129.977 55.2555C128.8 53.0921 127.507 50.9938 126.104 48.9698L96.2295 78.8444C96.9088 80.8465 97.3497 82.9101 97.5651 84.9891H138.15C138.14 84.7866 138.134 84.584 138.124 84.3867Z" fill="#4D5A31"/>
<path d="M97.7241 87.732C97.7241 88.1909 97.6805 88.6471 97.6574 89.106C97.6344 89.5649 97.6267 90.0237 97.5805 90.4775C97.0576 95.7505 95.0247 100.898 91.4769 105.223C91.1898 105.574 90.8643 105.902 90.5541 106.243C90.2465 106.581 89.9619 106.932 89.6338 107.26L118.26 135.882C118.586 135.556 118.891 135.22 119.208 134.889C119.526 134.559 119.849 134.233 120.157 133.897C122.274 131.603 124.212 129.204 125.955 126.709C126.027 126.609 126.091 126.512 126.161 126.415C126.373 126.11 126.578 125.799 126.789 125.492C126.971 125.215 127.153 124.941 127.33 124.661C127.419 124.528 127.506 124.39 127.591 124.256C134.156 113.949 137.671 102.264 138.142 90.4775C138.16 90.0212 138.17 89.5623 138.178 89.1034C138.188 88.6472 138.201 88.1909 138.201 87.732H97.7241Z" fill="#6BA43A"/>
<path d="M150.229 7.61609C142.823 0.210245 130.816 0.210245 123.41 7.61609C117.501 13.5223 116.319 22.3534 119.839 29.444L78.5261 70.7542C71.4355 67.2371 62.6019 68.4163 56.6931 74.3225C49.2872 81.7284 49.2898 93.7356 56.6931 101.141C64.1015 108.547 76.1113 108.545 83.5172 101.141C89.4259 95.2327 90.6051 86.4016 87.0855 79.311L128.398 38.0034C135.491 41.5205 144.32 40.3413 150.229 34.4325C157.635 27.0292 157.635 15.0219 150.229 7.61609Z" fill="#424143"/>
</svg>
